<svg width="19" height="20" viewBox="0 0 19 20"  xmlns="http://www.w3.org/2000/svg">
<path d="M9.60006 0.666656C4.45739 0.666656 0.266724 4.85732 0.266724 9.99999C0.266724 15.1427 4.45739 19.3333 9.60006 19.3333C14.7427 19.3333 18.9334 15.1427 18.9334 9.99999C18.9334 4.85732 14.7427 0.666656 9.60006 0.666656ZM14.0614 7.85332L8.76939 13.1453C8.63872 13.276 8.46139 13.3507 8.27472 13.3507C8.08806 13.3507 7.91072 13.276 7.78006 13.1453L5.13872 10.504C4.86806 10.2333 4.86806 9.78532 5.13872 9.51466C5.40939 9.24399 5.85739 9.24399 6.12806 9.51466L8.27472 11.6613L13.0721 6.86399C13.3427 6.59332 13.7907 6.59332 14.0614 6.86399C14.3321 7.13466 14.3321 7.57332 14.0614 7.85332Z" />
</svg>
